<svg xmlns="http://www.w3.org/2000/svg" xmlns:xlink="http://www.w3.org/1999/xlink" width="1024" zoomAndPan="magnify" viewBox="0 0 768 767.999994" height="1024" preserveAspectRatio="xMidYMid meet" version="1.0"><defs><clipPath id="d5f429fb65"><path d="M 0 9.773438 L 768 9.773438 L 768 758.273438 L 0 758.273438 Z M 0 9.773438 " clip-rule="nonzero"/></clipPath></defs><g clip-path="url(#d5f429fb65)"><path fill="#000000" d="M 96.136719 9.773438 L 86.542969 28.96875 L 187.292969 86.542969 C 187.292969 134.523438 168.101562 172.910156 124.925781 196.898438 L 24.171875 139.324219 L 19.375 148.917969 C 43.363281 220.890625 91.339844 268.871094 187.292969 268.871094 C 211.28125 268.871094 283.25 340.84375 321.628906 379.226562 L 398.394531 302.457031 C 360.011719 264.074219 273.652344 177.707031 273.652344 153.71875 C 273.652344 67.351562 249.664062 9.773438 96.136719 9.773438 Z M 695.851562 33.765625 L 599.898438 100.9375 L 590.300781 139.324219 L 312.035156 417.609375 L 273.652344 393.621094 L 254.460938 412.8125 C 254.460938 470.390625 187.292969 499.179688 158.507812 499.179688 L 0.183594 657.515625 C 0.183594 705.496094 52.957031 758.273438 100.9375 758.273438 L 259.257812 599.9375 C 259.257812 571.148438 288.046875 503.976562 345.617188 503.976562 L 364.808594 484.785156 L 340.820312 446.398438 L 619.085938 168.109375 L 657.46875 158.515625 L 724.636719 62.554688 Z M 455.964844 360.035156 L 379.203125 436.804688 C 436.773438 494.378906 513.539062 571.148438 513.539062 595.140625 C 513.539062 681.503906 537.527344 739.082031 691.054688 739.082031 L 700.648438 719.890625 L 599.898438 662.3125 C 599.898438 614.332031 619.085938 575.949219 662.265625 551.957031 L 763.019531 609.535156 L 767.816406 599.9375 C 743.828125 527.96875 695.851562 479.984375 599.898438 479.984375 C 575.90625 479.984375 513.539062 417.609375 455.964844 360.035156 Z M 455.964844 360.035156 " fill-opacity="1" fill-rule="nonzero"/></g></svg>